<svg width="131" height="26" fill="none" xmlns="http://www.w3.org/2000/svg"><path d="M130.688 15.375V19h-2.175c-1.55 0-2.758-.375-3.625-1.125-.866-.767-1.3-2.008-1.3-3.725V8.6h-1.7V5.05h1.7v-3.4h4.275v3.4h2.8V8.6h-2.8v5.6c0 .417.1.717.3.9.2.183.534.275 1 .275h1.525z" fill="url(#paint0_linear_106_71)"/><path d="M116.495 7.375a5.521 5.521 0 011.875-1.8 4.765 4.765 0 012.5-.675v4.525h-1.175c-1.067 0-1.867.233-2.4.7-.533.45-.8 1.25-.8 2.4V19h-4.275V5.05h4.275v2.325z" fill="url(#paint1_linear_106_71)"/><path d="M104.712 15.9h-6.55l-1.05 3.1h-4.475l6.35-17.55h4.95l6.35 17.55h-4.525l-1.05-3.1zm-1.1-3.3l-2.175-6.425-2.15 6.425h4.325z" fill="url(#paint2_linear_106_71)"/><path d="M84.22 19.2c-1.367 0-2.6-.292-3.7-.875a6.513 6.513 0 01-2.576-2.5c-.616-1.083-.925-2.35-.925-3.8 0-1.433.317-2.692.95-3.775a6.423 6.423 0 012.6-2.525c1.1-.583 2.334-.875 3.7-.875 1.367 0 2.6.292 3.7.875a6.423 6.423 0 012.6 2.525c.634 1.083.95 2.342.95 3.775 0 1.433-.325 2.7-.975 3.8a6.429 6.429 0 01-2.625 2.5c-1.1.583-2.333.875-3.7.875zm0-3.7c.816 0 1.508-.3 2.074-.9.584-.6.875-1.458.875-2.575 0-1.117-.283-1.975-.85-2.575-.55-.6-1.233-.9-2.05-.9-.833 0-1.525.3-2.075.9-.55.583-.825 1.442-.825 2.575 0 1.117.267 1.975.8 2.575.55.6 1.234.9 2.05.9zM69.599 4.9c1.6 0 2.883.533 3.85 1.6.966 1.05 1.45 2.5 1.45 4.35V19h-4.25v-7.575c0-.933-.242-1.658-.725-2.175-.484-.517-1.134-.775-1.95-.775-.817 0-1.467.258-1.95.775-.484.517-.725 1.242-.725 2.175V19h-4.275V.5h4.275v6.425c.433-.617 1.025-1.108 1.775-1.475s1.591-.55 2.525-.55zm-24.562 7.125c0-1.45.292-2.717.875-3.8a6.268 6.268 0 012.475-2.5c1.067-.583 2.283-.875 3.65-.875 1.75 0 3.208.458 4.375 1.375 1.183.917 1.958 2.208 2.325 3.875h-4.55c-.383-1.067-1.125-1.6-2.225-1.6-.783 0-1.408.308-1.875.925-.467.6-.7 1.467-.7 2.6s.233 2.008.7 2.625c.467.6 1.092.9 1.875.9 1.1 0 1.842-.533 2.225-1.6h4.55c-.367 1.633-1.142 2.917-2.325 3.85-1.183.933-2.642 1.4-4.375 1.4-1.367 0-2.583-.292-3.65-.875a6.268 6.268 0 01-2.475-2.5c-.583-1.083-.875-2.35-.875-3.8zm-.696-6.975l-8.75 20.575h-4.6l3.2-7.1L28.516 5.05h4.775l3.225 8.725 3.2-8.725h4.625zM21.826 19.2c-1.217 0-2.3-.208-3.25-.625-.95-.417-1.7-.983-2.25-1.7a4.568 4.568 0 01-.925-2.45h4.225c.05.483.275.875.675 1.175.4.3.891.45 1.475.45.533 0 .941-.1 1.225-.3.3-.217.45-.492.45-.825 0-.4-.209-.692-.625-.875-.417-.2-1.092-.417-2.025-.65-1-.233-1.834-.475-2.5-.725a4.488 4.488 0 01-1.725-1.225c-.484-.567-.725-1.325-.725-2.275 0-.8.216-1.525.65-2.175.45-.667 1.1-1.192 1.95-1.575.866-.383 1.891-.575 3.075-.575 1.75 0 3.125.433 4.125 1.3 1.016.867 1.6 2.017 1.75 3.45h-3.95a1.685 1.685 0 00-.65-1.15c-.35-.283-.817-.425-1.4-.425-.5 0-.884.1-1.15.3a.886.886 0 00-.4.775c0 .4.208.7.625.9.433.2 1.1.4 2 .6 1.033.267 1.875.533 2.525.8.65.25 1.216.667 1.7 1.25.5.567.758 1.333.775 2.3a3.68 3.68 0 01-.7 2.2c-.45.633-1.109 1.133-1.975 1.5-.85.367-1.842.55-2.975.55zM13.925 7.1c0 1.017-.233 1.95-.7 2.8-.467.833-1.183 1.508-2.15 2.025-.967.517-2.167.775-3.6.775h-2.65V19H.55V1.45h6.925c1.4 0 2.583.242 3.55.725.967.483 1.692 1.15 2.175 2 .483.85.725 1.825.725 2.925zM7.15 9.3c.817 0 1.425-.192 1.825-.575.4-.383.6-.925.6-1.625s-.2-1.242-.6-1.625c-.4-.383-1.008-.575-1.825-.575H4.825v4.4H7.15z" fill="#fff"/><defs><linearGradient id="paint0_linear_106_71" x1="129.368" y1="1.65" x2="117.239" y2="10.764" gradientUnits="userSpaceOnUse"><stop stop-color="#B75CFF"/><stop offset="1" stop-color="#671AE4"/></linearGradient><linearGradient id="paint1_linear_106_71" x1="119.572" y1="4.9" x2="109.357" y2="14.184" gradientUnits="userSpaceOnUse"><stop stop-color="#B75CFF"/><stop offset="1" stop-color="#671AE4"/></linearGradient><linearGradient id="paint2_linear_106_71" x1="107.64" y1="1.45" x2="95.819" y2="19.062" gradientUnits="userSpaceOnUse"><stop stop-color="#B75CFF"/><stop offset="1" stop-color="#671AE4"/></linearGradient></defs></svg>